<svg xmlns="http://www.w3.org/2000/svg" width="2383.937" height="1683.78" xml:space="preserve"><switch><g><path fill-rule="evenodd" clip-rule="evenodd" fill="#44A1D1" d="M1093.626 806.629c16.454-12.434 34.265-26.994 53.435-43.671h505.567c6.47 0 12.184 2.373 17.146 7.116 4.956 4.743 7.441 10.351 7.441 16.821 0 6.901-2.482 12.618-7.441 17.145-4.962 4.531-10.676 6.794-17.146 6.794h-343.553c-11.216 0-21.461 2.049-30.734 6.146-9.271 4.099-17.468 9.705-24.584 16.824-7.119 7.116-12.618 15.525-16.499 25.233-3.881 9.705-5.823 19.947-5.823 30.732v62.11c0 8.627 3.02 15.959 9.058 21.998 6.039 6.039 13.37 9.058 21.998 9.058 8.196 0 15.419-3.019 21.673-9.058 6.254-6.039 9.383-13.371 9.383-21.998v-54.994c0-6.47 1.939-11.862 5.823-16.174 3.881-4.312 8.625-6.901 14.232-7.766h336.436c12.078 0 23.4-2.264 33.967-6.792 10.569-4.53 19.843-10.676 27.821-18.441 7.981-7.763 14.235-16.821 18.763-27.172 4.531-10.351 6.794-21.567 6.794-33.645 0-12.078-2.264-23.291-6.794-33.642-4.528-10.354-10.782-19.41-18.763-27.175-7.978-7.763-17.255-13.911-27.821-18.439-10.567-4.528-21.892-6.794-33.967-6.794h-514.359c-8.781.348-15.233 3.488-21.998 9.058-28.034 24.586-51.434 43.671-70.197 57.26-18.763 13.586-35.478 23.615-50.141 30.085-14.666 6.47-28.468 10.351-41.41 11.644-12.94 1.296-27.819 1.942-44.643 1.942h-9.705c-15.094 0-29.005-.971-41.729-2.913-12.724-1.94-26.313-6.254-40.761-12.94-14.451-6.685-30.732-16.712-48.848-30.085-18.117-13.371-40.33-31.703-66.641-54.994-3.45-2.589-6.901-4.743-10.351-6.47-3.451-1.726-7.335-2.588-11.647-2.588-8.628 0-15.959 3.019-21.998 9.058-6.039 6.039-9.058 13.37-9.058 21.998 0 4.744 1.187 9.274 3.56 13.586 2.373 4.315 5.283 7.981 8.734 11 22.429 19.841 42.809 36.771 61.141 50.787 18.332 14.02 35.693 25.773 52.083 35.263-16.39 9.489-33.86 21.136-52.408 34.938-18.547 13.802-38.819 30.407-60.817 49.819-3.451 3.019-6.361 6.685-8.734 10.998-2.373 4.312-3.56 8.843-3.56 13.586 0 8.627 3.019 15.959 9.058 21.998 6.039 6.039 13.37 9.058 21.998 9.058 4.312 0 8.196-.862 11.647-2.589 3.45-1.724 6.901-3.881 10.351-6.47 25.88-22.429 47.768-40.327 65.669-53.701 17.901-13.371 33.86-23.506 47.877-30.407 14.02-6.901 27.066-11.322 39.143-13.264 12.078-1.942 25.233-3.126 39.468-3.56h14.232c16.821 0 31.918.755 45.289 2.267 13.371 1.508 27.497 5.499 42.379 11.969s31.703 16.499 50.466 30.085c18.763 13.586 41.947 32.458 69.551 56.611 7.334 6.039 14.666 9.058 21.998 9.058 8.627 0 15.959-3.019 21.998-9.058 6.039-6.039 9.058-13.371 9.058-21.998 0-4.743-1.187-9.274-3.557-13.586-2.373-4.312-5.286-7.978-8.736-10.998-22.86-19.412-43.347-36.124-61.463-50.144-18.117-14.017-35.369-25.77-51.759-35.26 16.393-9.486 33.86-21.242 52.408-35.259"/></g></switch></svg>